<mxfile host="app.diagrams.net" modified="2021-10-11T14:36:46.192Z" agent="5.0 (Windows NT 10.0; Win64; x64) AppleWebKit/537.36 (KHTML, like Gecko) Chrome/94.0.4606.61 Safari/537.36" etag="VFGl29N8zyIbKhtmjXXS" version="15.4.3" type="github" pages="2">
  <diagram id="IvafYgpCYRXgX-JP5Jq7" name="Page-1">
    <mxGraphModel dx="901" dy="764" grid="1" gridSize="10" guides="1" tooltips="1" connect="1" arrows="1" fold="1" page="1" pageScale="1" pageWidth="3300" pageHeight="4681" math="0" shadow="0">
      <root>
        <mxCell id="0" />
        <mxCell id="1" parent="0" />
        <mxCell id="739W72fwJbBnZSllMuie-1" value="&lt;br&gt;&lt;br&gt;&lt;b style=&quot;font-weight: normal&quot; id=&quot;docs-internal-guid-7beec195-7fff-d71c-2e84-b251b49cfc82&quot;&gt;&lt;p dir=&quot;ltr&quot; style=&quot;line-height: 1.38 ; margin-top: 0pt ; margin-bottom: 12pt&quot;&gt;&lt;span style=&quot;font-size: 16pt ; font-family: &amp;#34;arial&amp;#34; ; color: rgb(0 , 0 , 0) ; background-color: transparent ; font-weight: 400 ; font-style: normal ; font-variant: normal ; text-decoration: none ; vertical-align: baseline&quot;&gt;Autohaus&lt;/span&gt;&lt;/p&gt;&lt;p dir=&quot;ltr&quot; style=&quot;line-height: 1.38 ; margin-top: 0pt ; margin-bottom: 12pt&quot;&gt;&lt;span style=&quot;font-size: 12pt ; font-family: &amp;#34;arial&amp;#34; ; color: rgb(0 , 0 , 0) ; background-color: transparent ; font-weight: 400 ; font-style: normal ; font-variant: normal ; text-decoration: none ; vertical-align: baseline&quot;&gt;Ein Autohaus benötigt eine Datenbank der zu verkaufenden Autos. Diese Datenbank enthält Informationen zu den Fahrzeugen, Lieferanten und Kunden. Die wichtigsten Informationen für Autos sind der Hersteller, das Modell, das Baujahr und die Farbe. Zusätzlich können Informationen zur Innenausstattung gespeichert werden. Bei Gebrauchtwagen sind neben den genannten Informationen noch der Zustand, der Kilometerstand und die Anzahl der Vorbesitzer von Wichtigkeit. Alle Fahrzeuge haben einen aktuellen Preis. Ebenfalls werden in der Datenbank Informationen über die Kunden erfasst. Beim Kauf/Verkauf werden Kontaktdaten des Käufers/Verkäufers ermittelt. Dazu gehören E-Mail bzw. Telefonnummer, Name, Adresse und Volljährigkeit des Käufers bzw. Verkäufers. Zum Lieferanten gehören Informationen wie Name, Kontaktdaten, eine Liste der verfügbaren Fahrzeuge und welche bei Bedarf nachgekauft werden können.&lt;/span&gt;&lt;/p&gt;&lt;/b&gt;" style="text;html=1;strokeColor=none;fillColor=none;align=center;verticalAlign=middle;whiteSpace=wrap;rounded=0;" parent="1" vertex="1">
          <mxGeometry x="40" y="40" width="1270" height="230" as="geometry" />
        </mxCell>
        <mxCell id="2m-jZjdGSEvSYmMwfRLT-33" value="Das Auto hat einen Hersteller" style="text;html=1;strokeColor=none;fillColor=none;align=center;verticalAlign=middle;whiteSpace=wrap;rounded=0;" vertex="1" parent="1">
          <mxGeometry x="40" y="360" width="560" height="40" as="geometry" />
        </mxCell>
        <mxCell id="2m-jZjdGSEvSYmMwfRLT-34" value="Das Auto hat ein Modell" style="text;html=1;strokeColor=none;fillColor=none;align=center;verticalAlign=middle;whiteSpace=wrap;rounded=0;" vertex="1" parent="1">
          <mxGeometry x="40" y="440" width="560" height="40" as="geometry" />
        </mxCell>
        <mxCell id="2m-jZjdGSEvSYmMwfRLT-35" value="Das Auto hat ein Baujahr" style="text;html=1;strokeColor=none;fillColor=none;align=center;verticalAlign=middle;whiteSpace=wrap;rounded=0;" vertex="1" parent="1">
          <mxGeometry x="40" y="520" width="560" height="40" as="geometry" />
        </mxCell>
        <mxCell id="2m-jZjdGSEvSYmMwfRLT-36" value="Das Auto hat eine Farbe" style="text;html=1;strokeColor=none;fillColor=none;align=center;verticalAlign=middle;whiteSpace=wrap;rounded=0;" vertex="1" parent="1">
          <mxGeometry x="40" y="600" width="560" height="40" as="geometry" />
        </mxCell>
        <mxCell id="2m-jZjdGSEvSYmMwfRLT-37" value="Das Auto hat einen Preis" style="text;html=1;strokeColor=none;fillColor=none;align=center;verticalAlign=middle;whiteSpace=wrap;rounded=0;" vertex="1" parent="1">
          <mxGeometry x="40" y="680" width="560" height="40" as="geometry" />
        </mxCell>
        <mxCell id="2m-jZjdGSEvSYmMwfRLT-38" value="Das Auto hat Innenausstattung" style="text;html=1;strokeColor=none;fillColor=none;align=center;verticalAlign=middle;whiteSpace=wrap;rounded=0;" vertex="1" parent="1">
          <mxGeometry x="40" y="760" width="560" height="40" as="geometry" />
        </mxCell>
        <mxCell id="2m-jZjdGSEvSYmMwfRLT-39" value="Der Gebrauchtwagen hat einen Zustand" style="text;html=1;strokeColor=none;fillColor=none;align=center;verticalAlign=middle;whiteSpace=wrap;rounded=0;" vertex="1" parent="1">
          <mxGeometry x="40" y="920" width="560" height="40" as="geometry" />
        </mxCell>
        <mxCell id="2m-jZjdGSEvSYmMwfRLT-40" value="Der Gebrauchtwagen hat eine Anzahl Vorbesitzer" style="text;html=1;strokeColor=none;fillColor=none;align=center;verticalAlign=middle;whiteSpace=wrap;rounded=0;" vertex="1" parent="1">
          <mxGeometry x="40" y="1000" width="560" height="40" as="geometry" />
        </mxCell>
        <mxCell id="2m-jZjdGSEvSYmMwfRLT-41" value="Ein Kunde kann ein Käufer oder/und Verkäufer sein" style="text;html=1;strokeColor=none;fillColor=none;align=center;verticalAlign=middle;whiteSpace=wrap;rounded=0;" vertex="1" parent="1">
          <mxGeometry x="40" y="1160" width="560" height="40" as="geometry" />
        </mxCell>
        <mxCell id="2m-jZjdGSEvSYmMwfRLT-43" value="Ein Kunde ist volljährig" style="text;html=1;strokeColor=none;fillColor=none;align=center;verticalAlign=middle;whiteSpace=wrap;rounded=0;" vertex="1" parent="1">
          <mxGeometry x="40" y="1240" width="560" height="40" as="geometry" />
        </mxCell>
        <mxCell id="2m-jZjdGSEvSYmMwfRLT-44" value="Ein Kunde hat Kontaktdaten" style="text;html=1;strokeColor=none;fillColor=none;align=center;verticalAlign=middle;whiteSpace=wrap;rounded=0;" vertex="1" parent="1">
          <mxGeometry x="40" y="1320" width="560" height="40" as="geometry" />
        </mxCell>
        <mxCell id="2m-jZjdGSEvSYmMwfRLT-45" value="Ein Lieferant hat Kontaktdaten" style="text;html=1;strokeColor=none;fillColor=none;align=center;verticalAlign=middle;whiteSpace=wrap;rounded=0;" vertex="1" parent="1">
          <mxGeometry x="40" y="1480" width="560" height="40" as="geometry" />
        </mxCell>
        <mxCell id="2m-jZjdGSEvSYmMwfRLT-46" value="Ein Lieferant hat eine Liste verfügbarer Fahrzeue" style="text;html=1;strokeColor=none;fillColor=none;align=center;verticalAlign=middle;whiteSpace=wrap;rounded=0;" vertex="1" parent="1">
          <mxGeometry x="40" y="1560" width="560" height="40" as="geometry" />
        </mxCell>
        <mxCell id="2m-jZjdGSEvSYmMwfRLT-47" value="Ein Lieferant hat eine Liste bestellbarer Fahrzeuge" style="text;html=1;strokeColor=none;fillColor=none;align=center;verticalAlign=middle;whiteSpace=wrap;rounded=0;" vertex="1" parent="1">
          <mxGeometry x="40" y="1640" width="560" height="40" as="geometry" />
        </mxCell>
        <mxCell id="2m-jZjdGSEvSYmMwfRLT-49" value="Kontaktdaten setzen sich zusammen aus einer Telefonnummer, Adresse, Email und einen Namen" style="text;html=1;strokeColor=none;fillColor=none;align=center;verticalAlign=middle;whiteSpace=wrap;rounded=0;" vertex="1" parent="1">
          <mxGeometry x="40" y="1720" width="560" height="40" as="geometry" />
        </mxCell>
        <mxCell id="2m-jZjdGSEvSYmMwfRLT-55" value="Eine Adresse setzt sich zusammen aus Straßenangabe, Ortsangabe und Land" style="text;html=1;strokeColor=none;fillColor=none;align=center;verticalAlign=middle;whiteSpace=wrap;rounded=0;" vertex="1" parent="1">
          <mxGeometry x="40" y="1800" width="560" height="40" as="geometry" />
        </mxCell>
        <mxCell id="2m-jZjdGSEvSYmMwfRLT-60" value="Eine Straßenangabe setzt sich zusammen aus Straße und Hausnummer" style="text;html=1;strokeColor=none;fillColor=none;align=center;verticalAlign=middle;whiteSpace=wrap;rounded=0;" vertex="1" parent="1">
          <mxGeometry x="40" y="1880" width="560" height="40" as="geometry" />
        </mxCell>
        <mxCell id="2m-jZjdGSEvSYmMwfRLT-65" value="Das Auto hat eine AutoID" style="text;html=1;strokeColor=none;fillColor=none;align=center;verticalAlign=middle;whiteSpace=wrap;rounded=0;" vertex="1" parent="1">
          <mxGeometry x="40" y="280" width="560" height="40" as="geometry" />
        </mxCell>
        <mxCell id="2m-jZjdGSEvSYmMwfRLT-66" value="Der Gebrauchtwagen hat eine AutoID" style="text;html=1;strokeColor=none;fillColor=none;align=center;verticalAlign=middle;whiteSpace=wrap;rounded=0;" vertex="1" parent="1">
          <mxGeometry x="40" y="840" width="560" height="40" as="geometry" />
        </mxCell>
        <mxCell id="2m-jZjdGSEvSYmMwfRLT-67" value="Ein Kunde hat eine KundenID" style="text;html=1;strokeColor=none;fillColor=none;align=center;verticalAlign=middle;whiteSpace=wrap;rounded=0;" vertex="1" parent="1">
          <mxGeometry x="40" y="1080" width="560" height="40" as="geometry" />
        </mxCell>
        <mxCell id="2m-jZjdGSEvSYmMwfRLT-68" value="Ein Lieferant hat eine LieferantenID" style="text;html=1;strokeColor=none;fillColor=none;align=center;verticalAlign=middle;whiteSpace=wrap;rounded=0;" vertex="1" parent="1">
          <mxGeometry x="40" y="1400" width="560" height="40" as="geometry" />
        </mxCell>
        <mxCell id="2m-jZjdGSEvSYmMwfRLT-69" value="Eine Ortsangabe setzt sich zusammen aus Ort und Postleihzahl" style="text;html=1;strokeColor=none;fillColor=none;align=center;verticalAlign=middle;whiteSpace=wrap;rounded=0;" vertex="1" parent="1">
          <mxGeometry x="40" y="1960" width="560" height="40" as="geometry" />
        </mxCell>
      </root>
    </mxGraphModel>
  </diagram>
  <diagram id="DKlnuYgH37OPeWtUBzao" name="Page-2">
    <mxGraphModel dx="868" dy="450" grid="1" gridSize="10" guides="1" tooltips="1" connect="1" arrows="1" fold="1" page="1" pageScale="1" pageWidth="827" pageHeight="1169" math="0" shadow="0">
      <root>
        <mxCell id="Bj4k8IjxLYs70TTLHFmb-0" />
        <mxCell id="Bj4k8IjxLYs70TTLHFmb-1" parent="Bj4k8IjxLYs70TTLHFmb-0" />
      </root>
    </mxGraphModel>
  </diagram>
</mxfile>
